Coordinates
version=1
nRows=13
nColumns=30
inDegrees=yes

Units are S.I. units (second, meters, Newtons, ...)
Angles are in degrees.

endheader
time	floatyaw	floatroll	floatpitch	floatx	floaty	floatz	pro_sup_l	deviation_l	flexion_l	cmc_flexion_l	cmc_abduction_l	mp_flexion_l	ip_flexion_l	2mcp_flexion_l	2mcp_abduction_l	2pm_flexion_l	2md_flexion_l	3mcp_flexion_l	3mcp_abduction_l	3pm_flexion_l	3md_flexion_l	4mcp_flexion_l	4mcp_abduction_l	4pm_flexion_l	4md_flexion_l	5mcp_flexion_l	5mcp_abduction_l	5pm_flexion_l	5md_flexion_l
0.005000	-0.845308	-4.283240	94.249796	0.164539	-0.268809	0.157833	105.324509	21.224515	22.967058	-5.247636	37.872965	-16.658972	-23.866572	58.863893	13.403574	29.640718	37.026049	50.974634	7.792122	37.196355	50.394092	31.562177	-6.398236	71.931719	66.412046	26.318087	-9.956385	81.110672	57.132082
0.015000	-0.845308	-4.283240	94.249796	0.163875	-0.268102	0.156941	104.617421	20.842433	22.324875	-4.370492	37.904957	-17.017252	-26.962147	58.956011	13.363758	29.965518	38.993419	50.717042	7.704721	37.974081	52.627786	31.253647	-6.495302	72.430120	67.362541	25.921188	-9.762661	81.183558	57.386470
0.025000	-0.845308	-4.283240	94.249796	0.163130	-0.267431	0.155959	103.914422	20.483440	21.647437	-3.546864	38.032599	-17.267988	-30.058033	58.998835	13.342801	30.283372	41.067071	50.439338	7.627208	38.782505	54.845992	30.979049	-6.597110	72.874966	68.301512	25.536139	-9.583733	81.237697	57.660503
0.035000	-0.845308	-4.283240	94.249796	0.162345	-0.266842	0.154908	103.227231	20.152468	20.989397	-2.828953	38.208144	-17.426866	-32.956977	58.997539	13.342562	30.568697	43.119232	50.161477	7.564092	39.564323	56.910771	30.743726	-6.693016	73.245547	69.200671	25.207713	-9.429197	81.254537	57.932712
0.045000	-0.845308	-4.283240	94.249796	0.161550	-0.266369	0.153837	102.583228	19.859262	20.400356	-2.250649	38.395575	-17.502670	-35.484114	58.959960	13.359284	30.796074	45.004644	49.900659	7.517559	40.258099	58.696182	30.540121	-6.773262	73.532299	70.023503	24.962288	-9.306232	81.224288	58.188474
0.055000	-0.845308	-4.283240	94.249796	0.160773	-0.266032	0.152817	102.024968	19.620015	19.913756	-1.825033	38.576601	-17.498969	-37.521710	58.894494	13.385152	30.949676	46.594819	49.668384	7.486978	40.816780	60.107387	30.357513	-6.831895	73.736152	70.728508	24.802246	-9.218004	81.153682	58.415070
0.065000	-0.845308	-4.283240	94.249796	0.160032	-0.265830	0.151932	101.597936	19.452882	19.539352	-1.544112	38.747112	-17.421629	-39.031970	58.810330	13.410901	31.030200	47.807269	49.469584	7.469078	41.223485	61.095049	30.190701	-6.868117	73.866802	71.278267	24.710322	-9.162247	81.064828	58.596085
0.075000	-0.845308	-4.283240	94.249796	0.159340	-0.265751	0.151251	101.332932	19.369613	19.261986	-1.382349	38.909465	-17.285642	-40.057255	58.720224	13.428841	31.054921	48.617940	49.305808	7.459022	41.494028	61.663157	30.044988	-6.885797	73.940124	71.651298	24.660194	-9.130926	80.986439	58.711839
0.085000	-0.845308	-4.283240	94.249796	0.158713	-0.265763	0.150811	101.232325	19.367794	19.049484	-1.304354	39.065731	-17.115835	-40.696907	58.641487	13.435096	31.050288	49.056598	49.179628	7.452034	41.663994	61.868542	29.934492	-6.891503	73.974570	71.851892	24.627390	-9.112157	80.941749	58.746989
0.095000	-0.845308	-4.283240	94.249796	0.158172	-0.265825	0.150607	101.266550	19.428127	18.868215	-1.274440	39.214297	-16.941107	-41.071272	58.591655	13.430023	31.040935	49.192950	49.095694	7.444837	41.768898	61.810508	29.873702	-6.891941	73.987126	71.912887	24.596159	-9.094329	80.938645	58.700172
0.105000	-0.845308	-4.283240	94.249796	0.157739	-0.265899	0.150587	101.382196	19.518829	18.698563	-1.264544	39.349689	-16.786288	-41.288158	58.580692	13.416845	31.040992	49.120290	49.057137	7.436239	41.830055	61.610481	29.866993	-6.891810	73.990109	71.888234	24.560720	-9.070416	80.966879	58.588874
0.115000	-0.845308	-4.283240	94.249796	0.157429	-0.265955	0.150677	101.518459	19.605588	18.540915	-1.257887	39.464432	-16.666292	-41.423302	58.605388	13.399698	31.051714	48.938950	49.060338	7.426791	41.853282	61.385267	29.902749	-6.892880	73.990018	71.836939	24.521284	-9.039905	81.004289	58.446023
0.125000	-0.845308	-4.283240	94.249796	0.157246	-0.265984	0.150800	101.625516	19.662426	18.408975	-1.248035	39.551692	-16.584947	-41.517979	58.650027	13.382287	31.065445	48.740318	49.092276	7.417903	41.838233	61.221771	29.955561	-6.894452	73.988784	71.805367	24.477369	-9.007415	81.028891	58.309959
